# xmcd
#
# Track frame offsets:
#	150
#	15955
#	35446
#	52853
#	68008
#	89014
#	103345
#	118354
#	135655
#	158636
#	176892
#
# Disc length: 2546 seconds
#
# Revision: 1
# Processed by: cddbd v1.5PL3 Copyright (c) Steve Scherf et al.
# Submitted via: audiograbber 1.82.02
#
DISCID=9109f00b
DTITLE=IGO - Bet dzive viss ir savadak
DYEAR=1999
DGENRE=Pop
TTITLE0=Enas tverejs
TTITLE1=Velos
TTITLE2=Vai esmu seit
TTITLE3=Sapnis
TTITLE4=Apstajies
TTITLE5=Vel diena nesakas
TTITLE6=Tu mani uzruna
TTITLE7=Pilnmeness nakti
TTITLE8=Pieskariens
TTITLE9=Bet dzive viss ir savadak
TTITLE10=Pilnmeness nakt (Bonus)
EXTD=
EXTT0=
EXTT1=
EXTT2=
EXTT3=
EXTT4=
EXTT5=
EXTT6=
EXTT7=
EXTT8=
EXTT9=
EXTT10=
PLAYORDER=
